<?xml version="1.0" encoding="utf-8"?>
<!-- Generator: Adobe Illustrator 22.0.0, SVG Export Plug-In . SVG Version: 6.00 Build 0)  -->
<svg version="1.1" id="_x31_" xmlns="http://www.w3.org/2000/svg" xmlns:xlink="http://www.w3.org/1999/xlink" x="0px" y="0px"
	 viewBox="0 0 595.3 841.9" style="enable-background:new 0 0 595.3 841.9;" xml:space="preserve">
<style type="text/css">
	.st0{fill-rule:evenodd;clip-rule:evenodd;fill:#52A955;}
	.st1{fill-rule:evenodd;clip-rule:evenodd;fill:#FFFFFF;}
</style>
<path class="st0" d="M335.9,465.2l-25.2,4.6V460l39.7-7.3c2-0.4,3.3-2.3,3-4.3c-0.4-2-2.3-3.4-4.3-3l-42.7,7.8c0,0,0,0,0,0
	c-0.1,0-0.3,0.1-0.4,0.1c-0.1,0-0.2,0.1-0.3,0.1c-0.1,0-0.2,0.1-0.3,0.2c-0.1,0.1-0.2,0.1-0.3,0.2c-0.1,0.1-0.2,0.1-0.3,0.2
	c-0.1,0.1-0.2,0.2-0.3,0.2c-0.1,0.1-0.1,0.2-0.2,0.3c-0.1,0.1-0.2,0.2-0.2,0.3c-0.1,0.1-0.1,0.2-0.2,0.3c-0.1,0.1-0.1,0.2-0.2,0.3
	c0,0.1-0.1,0.2-0.1,0.3c0,0.1-0.1,0.2-0.1,0.4c0,0.1,0,0.2,0,0.3c0,0.1,0,0.3,0,0.4c0,0,0,0,0,0v17.5c0,0.1,0,0.2,0,0.3
	c0,0.1,0,0.2,0,0.3c0,0,0,0,0,0c0,0.1,0.1,0.3,0.1,0.4c0,0.1,0.1,0.2,0.1,0.3c0,0.1,0.1,0.2,0.2,0.3c0.1,0.1,0.1,0.2,0.2,0.3
	c0.1,0.1,0.1,0.2,0.2,0.3c0.1,0.1,0.2,0.2,0.2,0.3c0.1,0.1,0.2,0.1,0.3,0.2c0.1,0.1,0.2,0.2,0.3,0.2c0.1,0.1,0.2,0.1,0.3,0.2
	c0.1,0.1,0.2,0.1,0.3,0.2c0.1,0,0.2,0.1,0.3,0.1c0.1,0,0.2,0.1,0.4,0.1c0.1,0,0.2,0,0.3,0c0.1,0,0.3,0,0.4,0c0,0,0,0,0,0
	c0.1,0,0.2,0,0.3,0c0.1,0,0.2,0,0.3,0l29.5-5.4c4.5-0.8,7.3,2,8.4,4.8c1,2.7,0.9,6.8-2.9,9.3l-37.6,24.8c-1.7,1.1-2.2,3.4-1.1,5.2
	c0.7,1.1,1.9,1.7,3.1,1.7c0.7,0,1.4-0.2,2-0.6l37.6-24.8c7.1-4.7,8-12.6,5.8-18.4C350.2,468.9,344.2,463.7,335.9,465.2L335.9,465.2z
	 M312.1,486.7c0.4,2-1,4-3,4.3l-59.4,10.9c0,0,0,0-0.1,0c-0.2,0-0.4,0.1-0.6,0.1l0,0c0,0,0,0,0,0c-0.3,0-0.5,0-0.8-0.1
	c-0.1,0-0.1,0-0.2-0.1c-0.2-0.1-0.4-0.1-0.6-0.2c0,0-0.1,0-0.2-0.1c-0.2-0.1-0.4-0.3-0.6-0.5c0,0-0.1-0.1-0.1-0.1
	c-0.2-0.2-0.3-0.4-0.5-0.6c0,0,0-0.1-0.1-0.1c0,0,0,0,0-0.1c-0.1-0.2-0.2-0.3-0.2-0.5c0,0,0-0.1-0.1-0.1c-0.1-0.2-0.1-0.4-0.2-0.7v0
	c0-0.2-0.1-0.5-0.1-0.7c0-0.1,0-0.2,0-0.3c0-0.1,0-0.2,0-0.4c0-0.1,0.1-0.2,0.1-0.4c0-0.1,0.1-0.2,0.1-0.3c0-0.1,0.1-0.2,0.2-0.3
	c0.1-0.1,0.1-0.2,0.2-0.3c0.1-0.1,0.2-0.2,0.2-0.3c0.1-0.1,0.1-0.2,0.2-0.3c0.2-0.2,0.4-0.3,0.6-0.5l40.8-27c3.8-2.5,4-6.6,2.9-9.3
	c-1.1-2.7-3.9-5.6-8.4-4.8l-32.7,6c-2,0.4-3.9-1-4.3-3c-0.4-2,1-4,3-4.3l32.7-6c8.3-1.5,14.3,3.6,16.5,9.4
	c2.2,5.8,1.3,13.7-5.8,18.4l-25.5,16.9l41.5-7.6C309.8,483.3,311.7,484.6,312.1,486.7z"/>
<path class="st1" d="M329.6,483.5l-3.5,0.6c0-1.7,0.6-2.7,1.8-2.9c0.9-0.2,1.7,0.2,1.9,1.3c0,0.2,0,0.4,0,0.7
	C329.9,483.4,329.9,483.4,329.6,483.5L329.6,483.5z M327.9,480.2c-1.5,0.3-2.7,1.5-2.8,3.6c0,0.6,0,1.6,0.1,2.2
	c0.3,1.8,1.6,2.6,3.4,2.3c0.7-0.1,1.4-0.5,1.8-0.8c0.3-0.2,0.4-0.4,0.4-0.7c0-0.3-0.3-0.5-0.5-0.4c-0.2,0-0.3,0.1-0.4,0.2
	c-0.4,0.3-0.9,0.6-1.5,0.7c-1.1,0.2-1.9-0.3-2.1-1.4c0-0.1,0-0.3-0.1-0.5l0-0.2l3.9-0.7c0.8-0.1,0.8-0.2,0.8-1c0-0.6,0-0.9-0.1-1.1
	C330.6,480.5,329.3,479.9,327.9,480.2L327.9,480.2z M337.8,478.5l-5.5,1c-0.4,0.1-0.6,0.3-0.5,0.7c0.1,0.4,0.3,0.5,0.7,0.4l2.1-0.4
	l0,6c0,0.1,0,0.2,0,0.3c0.1,0.3,0.3,0.5,0.6,0.4c0.3-0.1,0.5-0.3,0.5-0.7l0-6.2l2.3-0.4c0.4-0.1,0.6-0.3,0.5-0.7
	C338.5,478.6,338.2,478.4,337.8,478.5L337.8,478.5z M322.3,481.3l-3.1,0.6c-0.7,0.1-1,0.4-1,1.2l0,2.1c0,2.3-0.2,3.2-1.1,3.9
	c-0.3,0.2-0.4,0.4-0.4,0.7c0.1,0.3,0.3,0.5,0.6,0.4c0.2,0,0.3-0.1,0.5-0.2c1.1-0.8,1.5-2.2,1.5-4.8l0-2.2l2.8-0.5l0,6
	c0,0.1,0,0.2,0,0.3c0.1,0.3,0.3,0.5,0.6,0.4c0.3-0.1,0.5-0.3,0.5-0.7l0-6.3C323.2,481.4,323,481.2,322.3,481.3z"/>
<path class="st1" d="M73.2,442.9c0-0.2,0-0.4-0.1-0.6l-3.6-9.9c-0.4-1.2-1.1-1.7-2.1-1.7c-1,0-1.6,0.5-2.1,1.7l-3.6,9.9
	c-0.1,0.3-0.1,0.5-0.1,0.6c0,0.5,0.4,0.9,1,0.9c0.5,0,0.8-0.2,1-0.8l1.2-3.3H70l1.2,3.4c0.2,0.6,0.5,0.8,1,0.8
	C72.8,443.8,73.2,443.4,73.2,442.9L73.2,442.9z M65.3,437.9l1.8-5.1c0.1-0.2,0.1-0.2,0.3-0.2c0.1,0,0.2,0.1,0.3,0.2l1.8,5.1H65.3
	L65.3,437.9z M89.6,443.7h3.9c2.5,0,4-1.5,4-4.1c0-2.5-1.5-3.8-4-3.8h-3.4v-3.1h5.7c0.6,0,1-0.4,1-1c0-0.6-0.4-0.9-1-0.9h-6.2
	c-1,0-1.5,0.5-1.5,1.5v9.9C88.1,443.2,88.6,443.7,89.6,443.7L89.6,443.7z M90.1,437.6h3.2c1.5,0,2.2,0.8,2.2,2.1
	c0,1.4-0.7,2.2-2.2,2.2h-3.2V437.6L90.1,437.6z M67.6,455.5h-3.8v-4h6.4c0.4,0,0.7-0.2,0.7-0.6c0-0.4-0.3-0.6-0.7-0.6h-6.5
	c-0.7,0-1.1,0.4-1.1,1.1V462c0,0.7,0.4,1.1,1.1,1.1h4c2.4,0,3.9-1.4,3.9-3.9C71.5,456.8,70.1,455.5,67.6,455.5L67.6,455.5z
	 M67.5,461.9h-3.7v-5.2h3.7c1.9,0,2.7,0.9,2.7,2.6C70.2,460.9,69.4,461.9,67.5,461.9L67.5,461.9z M76.9,453.3
	c-1.1,0-2.2,0.3-2.8,0.6c-0.4,0.2-0.6,0.4-0.6,0.7c0,0.3,0.3,0.6,0.6,0.6c0.2,0,0.3-0.1,0.5-0.1c0.5-0.2,1.3-0.5,2.2-0.5
	c1.7,0,2.4,0.7,2.4,2.2v0.9c-1-0.3-1.8-0.4-2.7-0.4c-2.4,0-3.7,1.4-3.7,3c0,1.9,1.4,3.1,3.6,3.1c1.8,0,3.2-0.6,3.8-1
	c0.2-0.1,0.3-0.3,0.3-0.6v-5C80.5,454.4,79.1,453.3,76.9,453.3L76.9,453.3z M79.2,461.5c-0.7,0.4-1.7,0.7-2.6,0.7
	c-1.6,0-2.5-0.7-2.5-1.9c0-1.1,0.8-1.9,2.5-1.9c0.9,0,1.6,0.1,2.6,0.4V461.5L79.2,461.5z M113.3,433.9c-1.7,0-3.1,0.6-3.6,0.9
	c-0.4,0.3-0.5,0.5-0.5,1.2v10c0,0.7,0.4,1,1,1c0.6,0,1-0.4,1-1v-2.6c0.6,0.3,1.5,0.5,2.3,0.5c2.3,0,3.8-1.5,4-3.7
	c0.1-0.7,0.1-1.9,0-2.7C117.2,435.4,115.7,433.9,113.3,433.9L113.3,433.9z M115.5,439.9c-0.1,1.2-0.9,2.1-2.3,2.1
	c-0.7,0-1.6-0.2-2.1-0.5v-5.2c0.5-0.3,1.4-0.5,2.1-0.5c1.4,0,2.2,0.8,2.3,2.1C115.6,438.5,115.6,439.3,115.5,439.9L115.5,439.9z
	 M82.6,442.1l-3.4-3.4l3.2-3.2c0.2-0.2,0.4-0.5,0.4-0.8c0-0.5-0.3-0.8-0.8-0.8c-0.3,0-0.5,0.1-0.8,0.4l-3.3,3.3
	c-0.2,0.2-0.4,0.3-0.6,0.3h-0.7V435c0-0.7-0.4-1-1-1c-0.6,0-1,0.4-1,1v7.8c0,0.7,0.4,1,1,1c0.6,0,1-0.4,1-1v-3.1h0.6
	c0.3,0,0.4,0.1,0.6,0.3l3.5,3.5c0.3,0.3,0.5,0.4,0.8,0.4c0.5,0,0.9-0.4,0.9-0.9C83,442.6,82.8,442.4,82.6,442.1L82.6,442.1z
	 M126.5,440.2c-0.4,0-0.7,0.3-0.9,0.6c-0.3,0.7-1.1,1.2-2,1.2c-1.4,0-2.2-0.8-2.3-2.1c-0.1-0.7-0.1-1.4,0-2.1
	c0.1-1.2,0.9-2.1,2.3-2.1c1,0,1.7,0.5,2,1.3c0.2,0.3,0.4,0.6,0.9,0.6c0.6,0,1-0.3,1-0.9c0-0.3-0.1-0.6-0.3-0.9
	c-0.6-1.1-1.8-1.9-3.6-1.9c-2.4,0-4,1.5-4.2,3.7c-0.1,0.7-0.1,1.9,0,2.6c0.2,2.2,1.8,3.7,4.2,3.7c1.8,0,3-0.8,3.6-1.9
	c0.2-0.3,0.3-0.6,0.3-0.9C127.4,440.5,127.1,440.2,126.5,440.2L126.5,440.2z M102.9,433.9c-1.1,0-2.1,0.3-2.7,0.5
	c-0.5,0.2-0.8,0.5-0.8,0.9c0,0.5,0.4,0.8,0.8,0.8c0.2,0,0.5-0.1,0.7-0.2c0.4-0.2,1.1-0.3,1.8-0.3c1.5,0,2.1,0.6,2.1,1.7v0.8
	c-0.9-0.2-1.6-0.3-2.4-0.3c-2.5,0-3.7,1.4-3.7,2.9c0,1.8,1.3,3.1,3.7,3.1c1.9,0,3.3-0.6,3.8-1c0.3-0.2,0.4-0.4,0.4-0.7v-4.7
	C106.8,435,105.4,433.9,102.9,433.9L102.9,433.9z M104.9,441.7c-0.6,0.3-1.4,0.5-2.1,0.5c-1.3,0-2-0.5-2-1.5c0-0.9,0.7-1.5,2-1.5
	c0.7,0,1.4,0.1,2.1,0.3V441.7L104.9,441.7z M96.8,458.2l3.7-3.7c0.2-0.2,0.3-0.3,0.3-0.5c0-0.3-0.2-0.5-0.6-0.5
	c-0.2,0-0.3,0.1-0.5,0.2l-3.7,3.7c-0.2,0.2-0.4,0.3-0.7,0.3h-0.8v-3.5c0-0.4-0.2-0.7-0.6-0.7c-0.4,0-0.6,0.2-0.6,0.7v8.5
	c0,0.4,0.2,0.7,0.6,0.7c0.4,0,0.6-0.2,0.6-0.7v-3.8h0.7c0.3,0,0.5,0.1,0.7,0.3l3.9,3.9c0.2,0.2,0.3,0.2,0.5,0.2
	c0.4,0,0.6-0.3,0.6-0.6c0-0.2-0.1-0.4-0.3-0.5L96.8,458.2L96.8,458.2z M90.2,453.4c-0.4,0-0.6,0.2-0.6,0.7v3.5h-5.4v-3.5
	c0-0.4-0.2-0.7-0.6-0.7c-0.4,0-0.6,0.2-0.6,0.7v8.5c0,0.4,0.2,0.7,0.6,0.7c0.4,0,0.6-0.2,0.6-0.7v-3.8h5.4v3.8
	c0,0.4,0.2,0.7,0.6,0.7c0.4,0,0.6-0.2,0.6-0.7v-8.5C90.8,453.7,90.6,453.4,90.2,453.4z"/>
<path class="st0" d="M127.4,489l-8.8,1.6c-1.5,0.3-2.4,1.7-2.2,3.1c0.3,1.5,1.7,2.4,3.1,2.2l8.8-1.6c2.1-0.4,3.4,0.9,3.9,2.2
	c0.5,1.3,0.4,3.1-1.4,4.2L118,509c-1.2,0.8-2.6,0.8-3.9,0.1c-1.2-0.7-2-1.9-2-3.4v-20.5c0-3.4-1.8-6.4-4.8-8.1
	c-3-1.6-6.5-1.5-9.4,0.4l-32.4,21c-3.6,2.4-5,6.7-3.4,10.7c1.6,4,5.5,6.2,9.8,5.5l28.3-5.1c1.5-0.3,2.4-1.7,2.2-3.1
	c-0.3-1.5-1.7-2.4-3.1-2.2L71,509.5c-2.1,0.4-3.4-0.9-3.9-2.2c-0.5-1.3-0.4-3.1,1.4-4.2l32.4-21c1.2-0.8,2.6-0.8,3.9-0.2
	c1.2,0.7,2,1.9,2,3.4v20.5c0,3.4,1.8,6.4,4.8,8.1c1.4,0.8,2.9,1.1,4.4,1.1c1.7,0,3.4-0.5,5-1.5l12.9-8.3c3.6-2.4,5-6.7,3.4-10.7
	C135.6,490.5,131.7,488.3,127.4,489L127.4,489z M172.7,494.5c-1.6-4-5.5-6.2-9.8-5.5l-8.8,1.6c-1.5,0.3-2.4,1.7-2.2,3.1
	c0.3,1.5,1.7,2.4,3.1,2.2l8.8-1.6c2.1-0.4,3.4,0.9,3.9,2.2c0.5,1.3,0.4,3.1-1.4,4.2l-12.9,8.3c-1.2,0.8-2.7,0.8-3.9,0.1
	c-1.2-0.7-2-1.9-2-3.4v-27c0-1.5-1.2-2.7-2.7-2.7c-1.5,0-2.7,1.2-2.7,2.7v27c0,3.4,1.8,6.4,4.8,8.1c1.4,0.8,2.9,1.1,4.4,1.1
	c1.7,0,3.4-0.5,5-1.5l12.9-8.3C172.9,502.8,174.3,498.5,172.7,494.5z"/>
<path class="st1" d="M395,447.5c-0.5,0-0.8,0.3-0.8,0.9v8.1h-11.6v-8.1c0-0.6-0.3-0.9-0.8-0.9c-0.5,0-0.8,0.3-0.8,0.9v17.7
	c0,0.6,0.3,0.9,0.8,0.9c0.5,0,0.8-0.3,0.8-0.9V458h11.6v8.1c0,0.6,0.3,0.9,0.8,0.9c0.5,0,0.8-0.3,0.8-0.9v-17.7
	C395.8,447.8,395.5,447.5,395,447.5L395,447.5z M405.3,467.1c2.7,0,4.7-0.9,5.4-1.5c0.3-0.2,0.4-0.4,0.4-0.7v-7.4
	c0-3.3-1.9-4.9-5.1-4.9c-1.6,0-3.3,0.5-4.1,0.9c-0.5,0.2-0.8,0.4-0.7,0.9c0,0.4,0.3,0.7,0.7,0.7c0.2,0,0.4-0.1,0.7-0.2
	c0.7-0.3,2-0.7,3.3-0.7c2.5,0,3.7,1,3.7,3.4v1.4c-1.6-0.5-2.7-0.6-4.1-0.6c-3.5,0-5.3,2-5.3,4.4C400,465.4,402.1,467.1,405.3,467.1
	L405.3,467.1z M405.5,465.5c-2.5,0-3.9-1.1-3.9-2.9c0-1.6,1.2-2.8,3.9-2.8c1.3,0,2.4,0.2,4,0.7v4
	C408.4,465.1,406.9,465.5,405.5,465.5L405.5,465.5z M427.7,465.3h-1.2v-11c0-1.2-0.3-1.5-1.5-1.5h-6.2c-1.2,0-1.5,0.3-1.5,1.5v3.3
	c0,4.5-0.5,7.7-2.3,7.7h-0.1c-0.5,0-0.8,0.3-0.8,0.8v3c0,0.5,0.3,0.8,0.8,0.8c0.5,0,0.8-0.3,0.8-0.8v-2.3h10.1c0,0,0,0,0,0h0h1.2
	v2.3c0,0.5,0.3,0.8,0.8,0.8c0.5,0,0.8-0.3,0.8-0.8v-3C428.4,465.6,428.2,465.3,427.7,465.3L427.7,465.3z M418.7,457.6v-3.2h6.2v11
	h-7.6C418.4,463.9,418.7,461,418.7,457.6L418.7,457.6z M437.1,452.6c-3.3,0-5.6,2.2-5.9,5.5c-0.1,1-0.1,2.6,0,3.6
	c0.3,3.2,2.6,5.4,6.1,5.4c1.6,0,2.9-0.3,4.1-0.9c0.4-0.2,0.8-0.5,0.8-0.9c0-0.4-0.3-0.7-0.7-0.7c-0.3,0-0.4,0.1-0.8,0.2
	c-1.1,0.5-2.2,0.7-3.5,0.7c-2.6,0-4.3-1.6-4.5-3.9c0-0.3-0.1-0.6-0.1-1h8.9c1.1,0,1.2-0.2,1.2-1.3v-1
	C442.8,455,440.6,452.6,437.1,452.6L437.1,452.6z M441.2,459.2h-8.5c0-0.4,0-0.7,0.1-1c0.2-2.4,1.9-4,4.4-4
	C439.7,454.2,441.4,455.9,441.2,459.2L441.2,459.2z M463.5,465.6l-5.4-5.9l5-5.3c0.3-0.3,0.6-0.6,0.6-1c0-0.3-0.3-0.7-0.7-0.7
	c-0.4,0-0.6,0.2-0.9,0.5l-4.6,5c-0.6,0.7-0.6,0.7-1.6,0.7h-0.6v-5.4c0-0.5-0.3-0.8-0.8-0.8c-0.5,0-0.8,0.3-0.8,0.8v5.4h-0.6
	c-0.9,0-1,0-1.6-0.7l-4.6-5c-0.3-0.3-0.5-0.5-0.9-0.5c-0.5,0-0.7,0.4-0.7,0.7c0,0.4,0.3,0.7,0.6,1l5,5.3l-5.4,5.9
	c-0.2,0.2-0.3,0.4-0.3,0.7c0,0.4,0.3,0.7,0.7,0.7c0.3,0,0.6-0.2,0.7-0.4l5-5.5c0.6-0.6,0.6-0.7,1.6-0.7h0.5v5.7
	c0,0.5,0.3,0.8,0.8,0.8c0.5,0,0.8-0.3,0.8-0.8v-5.7h0.5c1,0,1,0,1.6,0.7l5,5.5c0.1,0.1,0.4,0.4,0.7,0.4c0.4,0,0.7-0.3,0.7-0.7
	C463.8,466,463.6,465.8,463.5,465.6L463.5,465.6z M478.3,452.7c-0.5,0-0.8,0.3-0.8,0.8v5.4H469v-5.4c0-0.5-0.3-0.8-0.8-0.8
	c-0.5,0-0.8,0.3-0.8,0.8v12.6c0,0.5,0.3,0.8,0.8,0.8c0.5,0,0.8-0.3,0.8-0.8v-5.7h8.5v5.7c0,0.5,0.3,0.8,0.8,0.8
	c0.5,0,0.8-0.3,0.8-0.8v-12.6C479.1,453,478.8,452.7,478.3,452.7L478.3,452.7z M489.5,467.1c3.3,0,5.7-2.2,6-5.5
	c0.1-1,0.1-2.6,0-3.6c-0.3-3.2-2.7-5.5-6-5.5c-3.3,0-5.7,2.2-6,5.5c-0.1,1-0.1,2.6,0,3.6C483.8,464.9,486.1,467.1,489.5,467.1
	L489.5,467.1z M489.5,465.5c-2.5,0-4.2-1.6-4.4-4c-0.1-1-0.1-2.4,0-3.4c0.2-2.4,1.9-4,4.4-4c2.5,0,4.2,1.6,4.4,4
	c0.1,1,0.1,2.4,0,3.4C493.7,463.9,492,465.5,489.5,465.5L489.5,465.5z M507.7,452.8h-6.4c-1.2,0-1.5,0.3-1.5,1.5v11.8
	c0,0.5,0.3,0.8,0.8,0.8s0.8-0.3,0.8-0.8v-11.8h6.4c0.6,0,0.9-0.3,0.9-0.8C508.7,453.1,508.4,452.8,507.7,452.8L507.7,452.8z
	 M516.6,467.1c3.3,0,5.7-2.2,6-5.5c0.1-1,0.1-2.6,0-3.6c-0.3-3.2-2.7-5.5-6-5.5c-3.3,0-5.7,2.2-6,5.5c-0.1,1-0.1,2.6,0,3.6
	C510.9,464.9,513.3,467.1,516.6,467.1L516.6,467.1z M516.6,465.5c-2.5,0-4.2-1.6-4.4-4c-0.1-1-0.1-2.4,0-3.4c0.2-2.4,1.9-4,4.4-4
	c2.5,0,4.2,1.6,4.4,4c0.1,1,0.1,2.4,0,3.4C520.8,463.9,519.1,465.5,516.6,465.5L516.6,465.5z M391.2,487.6h-8.4
	c-1.2,0-1.5,0.3-1.5,1.5v11.8c0,0.5,0.3,0.8,0.8,0.8c0.5,0,0.8-0.3,0.8-0.8v-11.8h8.3v11.8c0,0.5,0.3,0.8,0.8,0.8
	c0.5,0,0.8-0.3,0.8-0.8v-11.8C392.7,488,392.4,487.6,391.2,487.6L391.2,487.6z M401.7,501.9c2.7,0,4.7-0.9,5.4-1.5
	c0.3-0.2,0.4-0.4,0.4-0.7v-7.4c0-3.3-1.9-4.9-5.1-4.9c-1.6,0-3.3,0.5-4.1,0.9c-0.5,0.2-0.8,0.4-0.7,0.9c0,0.4,0.3,0.7,0.7,0.7
	c0.2,0,0.4-0.1,0.7-0.2c0.7-0.3,2-0.7,3.3-0.7c2.5,0,3.7,1,3.7,3.4v1.4c-1.6-0.5-2.7-0.6-4.1-0.6c-3.5,0-5.3,2-5.3,4.4
	C396.5,500.2,398.5,501.9,401.7,501.9L401.7,501.9z M401.9,500.3c-2.5,0-3.9-1.1-3.9-2.9c0-1.6,1.2-2.8,3.9-2.8c1.3,0,2.4,0.2,4,0.7
	v4C404.8,499.9,403.3,500.3,401.9,500.3L401.9,500.3z M423.6,492.7c-0.3-3.2-2.5-5.3-5.9-5.3c-2.2,0-4.3,0.9-5.2,1.5
	c-0.3,0.2-0.4,0.4-0.4,0.8v16c0,0.5,0.3,0.8,0.8,0.8c0.5,0,0.8-0.3,0.8-0.8V501c1,0.5,2.5,0.9,4,0.9c3.4,0,5.6-2.2,5.9-5.3
	C423.7,495.5,423.7,493.8,423.6,492.7L423.6,492.7z M422,496.5c-0.2,2.3-1.7,3.8-4.4,3.8c-1.4,0-3.2-0.4-4-1.1V490
	c0.9-0.6,2.7-1.1,4-1.1c2.6,0,4.1,1.5,4.4,3.8C422.1,493.9,422.1,495.4,422,496.5L422,496.5z M437.9,487.6h-11.3
	c-0.6,0-0.9,0.3-0.9,0.8c0,0.5,0.3,0.8,0.9,0.8h4.9v11.8c0,0.5,0.3,0.8,0.8,0.8c0.5,0,0.8-0.3,0.8-0.8v-11.8h4.9
	c0.6,0,0.9-0.3,0.9-0.8C438.8,487.9,438.5,487.6,437.9,487.6L437.9,487.6z M452.8,487.5c-0.5,0-0.8,0.3-0.8,0.8v5.4h-8.5v-5.4
	c0-0.5-0.3-0.8-0.8-0.8c-0.5,0-0.8,0.3-0.8,0.8v12.6c0,0.5,0.3,0.8,0.8,0.8c0.5,0,0.8-0.3,0.8-0.8v-5.7h8.5v5.7
	c0,0.5,0.3,0.8,0.8,0.8c0.5,0,0.8-0.3,0.8-0.8v-12.6C453.6,487.8,453.3,487.5,452.8,487.5L452.8,487.5z M463.9,487.4
	c-3.3,0-5.6,2.2-5.9,5.5c-0.1,1-0.1,2.6,0,3.6c0.3,3.2,2.6,5.4,6.1,5.4c1.6,0,2.9-0.3,4.1-0.9c0.4-0.2,0.8-0.5,0.8-0.9
	c0-0.4-0.3-0.7-0.7-0.7c-0.3,0-0.4,0.1-0.8,0.2c-1.1,0.5-2.2,0.7-3.5,0.7c-2.6,0-4.3-1.6-4.5-3.9c0-0.3-0.1-0.6-0.1-1h8.9
	c1.1,0,1.2-0.2,1.2-1.3v-1C469.5,489.8,467.4,487.4,463.9,487.4L463.9,487.4z M468,494h-8.5c0-0.4,0-0.7,0.1-1c0.2-2.4,1.9-4,4.4-4
	C466.5,489,468.2,490.7,468,494L468,494z M485.1,492.7c-0.3-3.2-2.5-5.3-5.9-5.3c-2.2,0-4.3,0.9-5.2,1.5c-0.3,0.2-0.4,0.4-0.4,0.8
	v16c0,0.5,0.3,0.8,0.8,0.8c0.5,0,0.8-0.3,0.8-0.8V501c1,0.5,2.5,0.9,4,0.9c3.4,0,5.6-2.2,5.9-5.3
	C485.2,495.5,485.2,493.8,485.1,492.7L485.1,492.7z M483.5,496.5c-0.2,2.3-1.7,3.8-4.4,3.8c-1.4,0-3.2-0.4-4-1.1V490
	c0.9-0.6,2.7-1.1,4-1.1c2.6,0,4.1,1.5,4.4,3.8C483.6,493.9,483.6,495.4,483.5,496.5L483.5,496.5z M490.4,492.8
	c0.2-2.3,1.7-3.8,4.3-3.8c1.7,0,3.2,1,3.8,2.6c0.1,0.3,0.3,0.6,0.8,0.6c0.4,0,0.7-0.3,0.7-0.7c0-0.2-0.1-0.5-0.3-1
	c-0.8-1.8-2.7-3.1-5.1-3.1c-3.4,0-5.6,2.2-5.9,5.3c-0.1,1.1-0.1,2.8,0,3.9c0.3,3.2,2.5,5.3,5.9,5.3c2.4,0,4.3-1.3,5.1-3.1
	c0.2-0.5,0.3-0.8,0.3-1c0-0.4-0.3-0.7-0.7-0.7c-0.4,0-0.7,0.3-0.8,0.6c-0.6,1.6-2.1,2.6-3.8,2.6c-2.6,0-4.1-1.5-4.3-3.8
	C490.3,495.4,490.3,493.9,490.4,492.8L490.4,492.8z M514.3,487.6H503c-0.6,0-0.9,0.3-0.9,0.8c0,0.5,0.3,0.8,0.9,0.8h4.9v11.8
	c0,0.5,0.3,0.8,0.8,0.8c0.5,0,0.8-0.3,0.8-0.8v-11.8h4.9c0.6,0,0.9-0.3,0.9-0.8C515.3,487.9,515,487.6,514.3,487.6L514.3,487.6z
	 M519.9,501.7h5.6c2.7,0,4.3-1.4,4.3-4c0-1.9-1.1-3.1-2.6-3.3v0c1.2-0.2,2.1-1.4,2.1-3c0-2.3-1.7-3.7-4.1-3.7h-5.3
	c-1.2,0-1.5,0.3-1.5,1.5v11C518.4,501.3,518.7,501.7,519.9,501.7L519.9,501.7z M520,493.7v-4.6h5.2c1.6,0,2.5,0.8,2.5,2.3
	c0,1.5-1,2.3-2.5,2.3H520L520,493.7z M520,500.1v-4.9h5.6c1.7,0,2.8,0.9,2.8,2.4c0,1.6-1,2.4-2.8,2.4H520L520,500.1z M538.1,501.9
	c2.7,0,4.7-0.9,5.4-1.5c0.3-0.2,0.4-0.4,0.4-0.7v-7.4c0-3.3-1.9-4.9-5.1-4.9c-1.6,0-3.3,0.5-4.1,0.9c-0.5,0.2-0.8,0.4-0.7,0.9
	c0,0.4,0.3,0.7,0.7,0.7c0.2,0,0.4-0.1,0.7-0.2c0.7-0.3,2-0.7,3.3-0.7c2.5,0,3.7,1,3.7,3.4v1.4c-1.6-0.5-2.7-0.6-4.1-0.6
	c-3.5,0-5.3,2-5.3,4.4C532.9,500.2,534.9,501.9,538.1,501.9L538.1,501.9z M538.3,500.3c-2.5,0-3.9-1.1-3.9-2.9
	c0-1.6,1.2-2.8,3.9-2.8c1.3,0,2.4,0.2,4,0.7v4C541.2,499.9,539.7,500.3,538.3,500.3z"/>
<line class="st1" x1="212.4" y1="427.6" x2="212.4" y2="518.1"/>
</svg>
